HIERARCHY
ROOT pelvis
{
  OFFSET 0 100 0
  CHANNELS 6 Xposition Yposition Zposition Zrotation Xrotation Yrotation
  JOINT pelvis_right_femur
  {
    OFFSET -10.78128 -3.44521 -0.5502486
    CHANNELS 3 Zrotation Xrotation Yrotation
    JOINT right_femur_tibia
    {
      OFFSET -0.8047443 -44.0398 -0.1307829
      CHANNELS 3 Zrotation Xrotation Yrotation
      JOINT right_tibia_foot
      {
        OFFSET 3.006224 -47.83518 -5
        CHANNELS 3 Zrotation Xrotation Yrotation
        End Site
        {
          OFFSET 0 -5 15
        }
      }
    }
  }
  JOINT pelvis_left_femur
  {
    OFFSET 10.78128 -3.44521 -0.5502486
    CHANNELS 3 Zrotation Xrotation Yrotation
    JOINT left_femur_tibia
    {
      OFFSET 0.8047443 -44.0398 -0.1307829
      CHANNELS 3 Zrotation Xrotation Yrotation
      JOINT left_tibia_foot
      {
        OFFSET -4.370144 -48.10324 -4.275266
        CHANNELS 3 Zrotation Xrotation Yrotation
        End Site
        {
          OFFSET 0 -5 15
        }
      }
    }
  }
  JOINT pelvis_spine1
  {
    OFFSET 0 6.468898 -3.129235
    CHANNELS 3 Zrotation Xrotation Yrotation
    JOINT spine1
    {
      OFFSET 0 23.15396 4.99043
      CHANNELS 3 Zrotation Xrotation Yrotation
      JOINT spine2
      {
        OFFSET 0 20.79997 -5.064912
        CHANNELS 3 Zrotation Xrotation Yrotation
        JOINT neck
        {
          OFFSET 0 14.38658 9.616178
          CHANNELS 3 Zrotation Xrotation Yrotation
          End Site
          {
            OFFSET 0 20 0
          }
        }
      }
      JOINT right_manubrium
      {
        OFFSET -5.722621 16.35077 3.967754
        CHANNELS 3 Zrotation Xrotation Yrotation
        JOINT right_clavicle
        {
          OFFSET -13.16364 1.694482 -4.693211
          CHANNELS 3 Zrotation Xrotation Yrotation
          JOINT right_humerus
          {
            OFFSET -28.5034 -0.3100689 -2.792744
            CHANNELS 3 Zrotation Xrotation Yrotation
            JOINT right_radius
            {
              OFFSET -25.15693 0.02248979 -1.271978
              CHANNELS 3 Zrotation Xrotation Yrotation
              End Site
              {
                OFFSET -15 0 0
              }
            }
          }
        }
      }
      JOINT left_manubrium
      {
        OFFSET 5.722621 16.35077 3.967754
        CHANNELS 3 Zrotation Xrotation Yrotation
        JOINT left_clavicle
        {
          OFFSET 13.16364 1.694482 -4.693211
          CHANNELS 3 Zrotation Xrotation Yrotation
          JOINT left_humerus
          {
            OFFSET 29.39168 -1.063119 -2.237045
            CHANNELS 3 Zrotation Xrotation Yrotation
            JOINT left_radius
            {
              OFFSET 24.59957 -0.9528479 0.9047498
              CHANNELS 3 Zrotation Xrotation Yrotation
              End Site
              {
                OFFSET 15 -0 -0
              }
            }
          }
        }
      }
    }
  }
}
MOTION
Frames: 15
Frame Time: 0.0416666666667
0 103.5113 0 1.477382 -0.8538786 -0.03424896 2.899229 -16.18156 11.06787 -0 42.80231 -0 -5.404574 -17.90187 -3.800194 -7.506594 8.530621 -23.29049 -0 3.294925 -0 14.22805 -13.57945 29.48332 -4.037862 -4.719569 5.59502 2.050644 10.83129 -7.516657 1.873968 22.14982 5.280729 1.985263 -23.70498 9.269838 6.823213 -20.85737 11.47768 84.95103 36.72432 -17.1714 -0 0 17.85964 -6.326281 8.322507 4.338633 5.79746 -19.65618 -1.610388 -91.89103 22.01376 20.30882 0 0 -14.66509 14.91179 15.90347 -2.184373
0.3397082 104.253 1.351744 1.147847 -0.7904172 -0.08339963 3.235104 -16.90251 10.83506 -0 42.46332 -0 -6.111789 -16.42795 -3.6716 -7.176729 8.866577 -22.82593 -0 3.91094 -0 13.7401 -13.86868 29.12437 -3.862672 -4.441847 5.256194 2.136137 10.845 -7.611308 1.784733 21.99849 5.576081 2.253381 -23.93447 9.30091 6.895537 -20.62583 11.56012 85.07405 36.90518 -17.3559 -0 0 17.27648 -6.882053 8.664939 4.509433 5.89012 -19.87359 -1.570462 -91.83363 21.76576 20.09607 0 0 -14.3898 14.92824 15.84399 -2.36934
0.621617 104.6332 4.858517 -1.22801 0.3740542 0.2250381 5.006738 -27.33946 3.865838 -0 27.04996 -0 -9.5994 -3.052774 -0.6175577 -5.175105 11.89164 -16.62609 -0 8.394962 -0 4.715752 -19.93669 20.41979 -1.989393 -1.254216 2.970686 2.66085 9.934239 -8.026518 1.019373 20.93621 7.989871 4.489197 -25.70293 9.135842 5.0762 -18.42405 11.69413 87.38334 33.00025 -20.03984 -0 0 11.78746 -12.91234 9.748661 6.704416 7.49178 -22.47778 -2.331589 -90.79761 21.16824 17.69575 0 0 -17.28114 12.71627 15.84985 -1.065912
0.8912478 104.4487 8.76117 -1.013899 0.7188982 0.6192369 4.417175 -30.10088 1.316556 -0 19.14779 -0 -8.611668 -2.621684 -0.04359214 -5.404005 12.81398 -15.64803 -0 8.283125 -0 2.099076 -22.18067 17.82939 -1.926516 -0.7446696 3.161957 2.581544 9.17069 -7.719875 1.175143 21.08207 8.013781 4.570488 -25.55517 9.168342 3.91309 -17.83508 11.26833 88.0009 30.85954 -20.67027 -0 0 11.03413 -13.54395 9.320058 6.556627 8.180686 -22.87641 -2.627484 -90.28319 21.70058 16.57659 0 0 -19.76598 12.11889 16.35752 -0.6687901
1.185416 103.6393 13.08883 -0.2597793 0.4370143 1.066984 2.797698 -31.78515 -2.34352 -0 11.25915 -0 -7.839223 -1.752902 0.7633858 -5.944688 13.85309 -14.5207 -0 7.460803 -0 0.121564 -24.05425 15.43859 -2.162884 -0.435227 3.420078 2.22099 8.642646 -7.208076 1.318548 21.56253 7.891765 4.640048 -24.60459 8.92859 2.546854 -17.20231 10.8383 88.891 28.42743 -21.18217 -0 0 9.844837 -14.90654 8.780573 6.57553 8.99129 -23.60482 -3.344363 -88.90599 21.17897 14.32872 0 0 -22.9818 12.62244 16.89626 -1.845045
1.49947 102.4357 17.88433 0.4577406 -0.2343439 1.567594 1.38359 -32.24867 -5.309145 -0 6.058505 -0 -7.709908 -0.3341016 1.246539 -6.351222 15.03207 -13.23913 -0 7.350955 -0 -0.9728041 -25.02598 13.87061 -2.433094 -0.348899 3.419849 1.88283 8.483879 -6.893854 1.378211 22.03028 7.717903 4.677001 -23.42621 8.529065 1.437152 -16.57132 10.54915 89.85486 26.51498 -21.68481 -0 0 8.396647 -16.41047 8.47722 6.688554 9.576543 -24.4033 -4.027271 -87.31154 20.01792 11.76101 0 0 -25.56757 13.50677 17.05628 -3.585537
1.80543 101.0501 23.20953 1.101495 -1.308908 2.087635 0.4284834 -31.56428 -7.5487 -0 2.975306 -0 -8.002501 1.379704 1.402941 -6.620958 16.31034 -11.71707 -0 8.448847 -0 -1.315907 -25.07703 12.99183 -2.612015 -0.5192966 3.220329 1.562962 8.70485 -6.783686 1.364579 22.50169 7.450177 4.618146 -22.06425 7.980598 0.3976677 -16.02413 10.38693 91.00277 24.67433 -22.27367 -0 0 6.754077 -18.04054 8.367828 6.877274 9.915473 -25.29427 -4.750612 -85.64344 18.3461 9.04661 0 0 -27.76575 14.61282 16.90457 -5.65531
2.062171 99.77674 29.09685 1.491924 -2.512677 2.549788 0.4013751 -29.98901 -8.515214 -0 1.864728 -0 -8.543142 2.985823 1.163141 -6.665488 17.47791 -10.08239 -0 11.55007 -0 -1.067952 -24.13599 12.75636 -2.556088 -0.968892 2.918607 1.345921 9.266814 -6.949025 1.299496 22.82626 7.09078 4.440995 -20.83626 7.384359 -0.4918614 -15.66132 10.34328 92.20981 23.05085 -23.0056 -0 0 5.262833 -19.42376 8.539856 6.990331 9.952539 -26.14647 -5.362031 -84.29293 16.53749 6.773262 0 0 -29.32649 15.58239 16.46967 -7.520893
2.221476 98.96483 35.4907 1.428976 -3.599918 2.832178 1.543103 -27.68297 -7.878462 -0 2.846094 -0 -9.234525 4.104058 0.5511314 -6.358921 18.04732 -8.531469 -0 17.46289 -0 -0.5131774 -22.00699 12.96664 -2.099723 -1.636515 2.646817 1.27554 10.12288 -7.397057 1.190401 22.87598 6.692009 4.164484 -20.0491 6.842657 -1.095438 -15.60999 10.42749 93.28618 21.8896 -23.81912 -0 0 4.354918 -20.26275 9.081877 6.939824 9.610394 -26.79814 -5.770518 -83.59891 15.02299 5.631262 0 0 -29.84398 16.09436 15.84379 -8.632982
2.257346 98.93883 42.20349 0.8042032 -4.287271 2.816374 3.653762 -24.89521 -5.755453 -0 5.689442 -0 -10.0094 4.310474 -0.2533569 -5.617292 17.33767 -7.379272 -0 26.3704 -0 -0.1611012 -18.72425 13.21559 -1.18242 -2.284494 2.594161 1.344865 11.07038 -7.988583 1.053998 22.59094 6.374872 3.897899 -19.93953 6.471004 -1.214449 -15.90624 10.62515 93.92825 21.62358 -24.49602 -0 0 4.476626 -20.29672 9.959716 6.638533 8.882185 -27.03849 -5.918008 -83.84325 14.27716 6.275798 0 0 -28.85207 15.90409 15.19905 -8.512393
2.194674 99.83338 48.94338 -0.1869662 -4.535638 2.47143 5.963243 -21.77266 -2.95501 -0 9.525845 -0 -10.84204 3.346319 -0.9746896 -4.551934 14.86533 -6.854813 -0 37.18627 -0 -0.4449069 -14.74497 13.16254 -0.01587092 -2.548846 2.886117 1.454622 11.79038 -8.409278 0.931633 22.14481 6.244601 3.798147 -20.37398 6.316421 -0.7714521 -16.38814 10.89068 93.90562 22.51492 -24.68533 -0 0 5.663947 -19.55545 10.89558 6.089342 7.880113 -26.7348 -5.874987 -85.05118 14.48117 8.728215 0 0 -26.21557 15.05281 14.73995 -7.148326
2.089999 101.5055 55.43699 -1.073066 -4.671243 1.859378 7.55628 -18.27189 -0.5555073 -0 13.00664 -0 -11.66485 1.292984 -1.499912 -3.481996 10.81643 -6.88996 -0 47.77078 -0 -1.373987 -10.89379 12.90595 0.93249 -2.191443 3.458969 1.474702 12.02565 -8.348178 0.9010001 21.90497 6.258364 3.917471 -20.82132 6.323964 0.0400598 -16.73824 11.14079 93.23516 24.31955 -24.08713 -0 0 7.342362 -18.4087 11.52125 5.430598 6.824087 -25.92754 -5.765435 -86.85792 15.39731 12.04472 0 0 -22.40385 13.84549 14.60993 -5.099269
1.976917 103.6353 61.51914 -1.476239 -5.070205 1.065211 8.035532 -14.22877 0.859257 -0 15.10446 -0 -12.36824 -1.456455 -1.921669 -2.671145 5.80069 -7.178528 -0 56.08615 -0 -2.578079 -7.895057 12.87239 1.28126 -1.291225 4.145868 1.347605 11.76534 -7.736547 1.011044 22.11214 6.260925 4.152619 -20.79566 6.374227 0.8879806 -16.78239 11.29927 92.09946 26.46439 -22.62038 -0 0 8.86509 -17.31752 11.67782 4.882874 5.936423 -24.8011 -5.628681 -88.71901 16.59777 15.05306 0 0 -18.18556 12.60785 14.79334 -3.074233
1.858888 105.8726 67.123 -1.342767 -5.760567 0.1878929 7.591592 -9.591225 1.336096 -0 15.56754 -0 -12.92741 -4.444884 -2.269836 -2.150483 0.230025 -7.419457 -0 60.73097 -0 -3.646624 -6.044027 13.3298 0.9725827 -0.110377 4.844938 1.099773 11.17109 -6.73996 1.205122 22.68681 6.175671 4.39945 -20.21879 6.35307 1.576541 -16.64649 11.34682 90.61165 28.59515 -20.37104 -0 0 10.0967 -16.56473 11.42835 4.634253 5.362472 -23.57016 -5.409368 -90.29969 17.67909 17.27448 0 0 -14.12036 11.55591 15.10804 -1.536579
1.744741 107.8869 72.25348 -0.8332712 -6.496603 -0.6582451 6.612047 -4.497599 1.142556 -0 14.67948 -0 -13.41374 -7.409135 -2.460898 -1.785237 -5.718852 -7.427894 -0 60.73802 -0 -4.292325 -5.281184 14.26111 0.175156 1.105131 5.496181 0.7933854 10.39863 -5.595683 1.354586 23.39913 6.051307 4.613965 -19.29409 6.205846 2.074871 -16.58273 11.30623 88.77536 30.67178 -17.45296 -0 0 11.23201 -16.26083 10.91641 4.830589 5.151431 -22.39014 -5.035441 -91.49723 18.36237 18.79665 0 0 -10.4831 10.81042 15.34749 -0.6664405
